TITLE ""
FILE "Disc4Track22.mp3" MP3
  TRACK 01 AUDIO
    TITLE "Disc4Track22_01"
    INDEX 01 00:00:00
  TRACK 02 AUDIO
    TITLE "Disc4Track22_02"
    INDEX 01 00:01:18
  TRACK 03 AUDIO
    TITLE "Disc4Track22_03"
    INDEX 01 00:02:33
  TRACK 04 AUDIO
    TITLE "Disc4Track22_04"
    INDEX 01 00:03:63
  TRACK 05 AUDIO
    TITLE "Disc4Track22_05"
    INDEX 01 00:04:26
  TRACK 06 AUDIO
    TITLE "Disc4Track22_06"
    INDEX 01 00:05:47
  TRACK 07 AUDIO
    TITLE "Disc4Track22_07"
    INDEX 01 00:06:62
  TRACK 08 AUDIO
    TITLE "Disc4Track22_08"
    INDEX 01 00:08:06
  TRACK 09 AUDIO
    TITLE "Disc4Track22_09"
    INDEX 01 00:12:41
  TRACK 10 AUDIO
    TITLE "Disc4Track22_10"
    INDEX 01 00:12:74
  TRACK 11 AUDIO
    TITLE "Disc4Track22_11"
    INDEX 01 00:14:24
  TRACK 12 AUDIO
    TITLE "Disc4Track22_12"
    INDEX 01 00:20:21
  TRACK 13 AUDIO
    TITLE "Disc4Track22_13"
    INDEX 01 00:21:44
  TRACK 14 AUDIO
    TITLE "Disc4Track22_14"
    INDEX 01 00:25:46
  TRACK 15 AUDIO
    TITLE "Disc4Track22_15"
    INDEX 01 00:25:73
  TRACK 16 AUDIO
    TITLE "Disc4Track22_16"
    INDEX 01 00:27:23
  TRACK 17 AUDIO
    TITLE "Disc4Track22_17"
    INDEX 01 00:28:18
  TRACK 18 AUDIO
    TITLE "Disc4Track22_18"
    INDEX 01 00:29:45
  TRACK 19 AUDIO
    TITLE "Disc4Track22_19"
    INDEX 01 00:30:09
  TRACK 20 AUDIO
    TITLE "Disc4Track22_20"
    INDEX 01 00:31:25
  TRACK 21 AUDIO
    TITLE "Disc4Track22_21"
    INDEX 01 00:34:60
  TRACK 22 AUDIO
    TITLE "Disc4Track22_22"
    INDEX 01 00:35:73
  TRACK 23 AUDIO
    TITLE "Disc4Track22_23"
    INDEX 01 00:38:70
  TRACK 24 AUDIO
    TITLE "Disc4Track22_24"
    INDEX 01 00:39:26
  TRACK 25 AUDIO
    TITLE "Disc4Track22_25"
    INDEX 01 00:40:53
  TRACK 26 AUDIO
    TITLE "Disc4Track22_26"
    INDEX 01 00:43:24
  TRACK 27 AUDIO
    TITLE "Disc4Track22_27"
    INDEX 01 00:44:49
  TRACK 28 AUDIO
    TITLE "Disc4Track22_28"
    INDEX 01 00:48:74
  TRACK 29 AUDIO
    TITLE "Disc4Track22_29"
    INDEX 01 00:49:28
  TRACK 30 AUDIO
    TITLE "Disc4Track22_30"
    INDEX 01 00:50:57
  TRACK 31 AUDIO
    TITLE "Disc4Track22_31"
    INDEX 01 00:53:28
  TRACK 32 AUDIO
    TITLE "Disc4Track22_32"
    INDEX 01 00:54:55
  TRACK 33 AUDIO
    TITLE "Disc4Track22_33"
    INDEX 01 00:58:39
  TRACK 34 AUDIO
    TITLE "Disc4Track22_34"
    INDEX 01 00:58:70
  TRACK 35 AUDIO
    TITLE "Disc4Track22_35"
    INDEX 01 01:00:24
  TRACK 36 AUDIO
    TITLE "Disc4Track22_36"
    INDEX 01 01:04:48
  TRACK 37 AUDIO
    TITLE "Disc4Track22_37"
    INDEX 01 01:05:74
  TRACK 38 AUDIO
    TITLE "Disc4Track22_38"
    INDEX 01 01:11:10
  TRACK 39 AUDIO
    TITLE "Disc4Track22_39"
    INDEX 01 01:11:40
  TRACK 40 AUDIO
    TITLE "Disc4Track22_40"
    INDEX 01 01:12:74
  TRACK 41 AUDIO
    TITLE "Disc4Track22_41"
    INDEX 01 01:14:69
  TRACK 42 AUDIO
    TITLE "Disc4Track22_42"
    INDEX 01 01:16:29
  TRACK 43 AUDIO
    TITLE "Disc4Track22_43"
    INDEX 01 01:16:68
  TRACK 44 AUDIO
    TITLE "Disc4Track22_44"
    INDEX 01 01:18:08
  TRACK 45 AUDIO
    TITLE "Disc4Track22_45"
    INDEX 01 01:20:05
  TRACK 46 AUDIO
    TITLE "Disc4Track22_46"
    INDEX 01 01:21:19
  TRACK 47 AUDIO
    TITLE "Disc4Track22_47"
    INDEX 01 01:24:70
  TRACK 48 AUDIO
    TITLE "Disc4Track22_48"
    INDEX 01 01:25:26
  TRACK 49 AUDIO
    TITLE "Disc4Track22_49"
    INDEX 01 01:26:45
  TRACK 50 AUDIO
    TITLE "Disc4Track22_50"
    INDEX 01 01:27:51
  TRACK 51 AUDIO
    TITLE "Disc4Track22_51"
    INDEX 01 01:28:70
